<svg width="220" height="216" viewBox="0 0 220 216" fill="none" xmlns="http://www.w3.org/2000/svg">
<path d="M77.1213 34.5333L120.955 60.7205L173.059 52.1418L159.051 101.482L181.597 146.319L129.105 150.626L90.935 186.916L72.5018 140.237L26.3658 117.828L67.4648 84.6724L77.1213 34.5333Z" fill="#0166F6"/>
<path d="M102.003 138.041C99.8778 139.415 97.7328 139.972 95.5683 139.711C93.3975 139.44 91.6616 138.406 90.3607 136.61L93.5196 134.567C94.3185 135.544 95.3395 136.098 96.5826 136.229C97.8356 136.354 99.0574 136.031 100.248 135.261C101.587 134.396 102.405 133.267 102.704 131.873C103.003 130.48 102.72 129.114 101.855 127.775C100.99 126.437 99.857 125.613 98.4571 125.304C97.0607 124.979 95.6983 125.246 94.3697 126.105C93.4447 126.703 92.7337 127.449 92.2369 128.342C91.7435 129.22 91.516 130.141 91.5545 131.107L88.5284 133.064L81.8621 120.293L94.5421 112.094L96.3459 114.884L86.323 121.365L89.9607 128.286L90.0345 128.238C90.0678 127.254 90.3769 126.307 90.9617 125.399C91.5501 124.474 92.3609 123.678 93.3942 123.01C95.4411 121.686 97.5597 121.272 99.7501 121.768C101.934 122.254 103.694 123.53 105.03 125.596C106.443 127.781 106.866 130.033 106.301 132.353C105.739 134.656 104.306 136.552 102.003 138.041Z" fill="white"/>
<path d="M124.284 119.406C124.142 122.317 122.802 124.593 120.263 126.235C117.724 127.876 115.092 128.176 112.366 127.133C109.644 126.074 107.179 123.837 104.971 120.422C102.783 117.037 101.772 113.888 101.94 110.975C102.101 108.051 103.446 105.772 105.975 104.137C108.504 102.502 111.127 102.208 113.843 103.257C116.552 104.297 119.004 106.514 121.199 109.909C123.407 113.324 124.435 116.49 124.284 119.406ZM113.519 123.541C115.303 124.466 116.953 124.439 118.469 123.459C119.984 122.479 120.681 120.989 120.56 118.988C120.442 116.971 119.546 114.669 117.873 112.081C116.218 109.522 114.494 107.783 112.7 106.864C110.909 105.929 109.265 105.945 107.77 106.912C106.274 107.879 105.58 109.374 105.688 111.398C105.796 113.421 106.674 115.707 108.322 118.256C109.996 120.844 111.728 122.606 113.519 123.541Z" fill="white"/>
<path d="M125.075 93.9854C126.541 94.4188 127.803 95.4523 128.859 97.0859C129.915 98.7195 130.34 100.294 130.133 101.809C129.927 103.324 129.125 104.533 127.727 105.437C126.32 106.347 124.883 106.585 123.417 106.152C121.951 105.718 120.689 104.685 119.633 103.051C118.577 101.418 118.152 99.8432 118.358 98.3281C118.565 96.813 119.372 95.6005 120.779 94.6906C122.177 93.7871 123.608 93.552 125.075 93.9854ZM126.382 103.355C126.962 102.98 127.234 102.386 127.197 101.573C127.159 100.76 126.81 99.8412 126.148 98.8177C125.493 97.8041 124.802 97.1135 124.076 96.7457C123.349 96.378 122.696 96.3818 122.115 96.7572C121.525 97.139 121.248 97.7364 121.286 98.5496C121.323 99.3627 121.669 100.276 122.325 101.29C122.986 102.313 123.68 103.009 124.407 103.377C125.133 103.744 125.791 103.737 126.382 103.355ZM134.619 116.387L131.696 118.277L132.651 101.688L133.497 86.907L136.405 85.0268L135.491 101.192L134.619 116.387ZM148.43 100.193C149.487 101.827 149.911 103.401 149.705 104.916C149.508 106.425 148.706 107.635 147.299 108.544C145.892 109.454 144.455 109.693 142.989 109.259C141.532 108.819 140.276 107.783 139.219 106.149C138.157 104.506 137.724 102.93 137.921 101.421C138.127 99.9058 138.934 98.6933 140.341 97.7834C141.748 96.8735 143.18 96.6385 144.637 97.0782C146.103 97.5116 147.368 98.5501 148.43 100.193ZM143.978 106.484C144.698 106.842 145.353 106.83 145.944 106.448C146.534 106.067 146.809 105.477 146.768 104.68C146.731 103.867 146.381 102.949 145.72 101.925C145.058 100.902 144.367 100.211 143.647 99.8533C142.931 99.4792 142.277 99.483 141.687 99.8648C141.097 100.247 140.82 100.844 140.857 101.657C140.898 102.454 141.249 103.364 141.911 104.388C142.573 105.411 143.262 106.11 143.978 106.484Z" fill="white"/>
<path d="M72.921 113.203L75.0658 111.751C75.612 112.391 76.3347 112.713 77.234 112.718C78.1332 112.722 79.0455 112.411 79.9707 111.785C80.8506 111.19 81.4373 110.495 81.7307 109.702C82.0307 108.905 81.9682 108.193 81.5435 107.565C81.1756 107.022 80.6719 106.716 80.0322 106.649C79.3881 106.576 78.5387 106.736 77.4841 107.129L75.3737 107.92C73.876 108.481 72.6118 108.662 71.5812 108.464C70.557 108.261 69.7143 107.671 69.0531 106.694C68.2386 105.49 68.0474 104.191 68.4797 102.794C68.9184 101.394 69.8883 100.185 71.3893 99.1693C72.8644 98.1709 74.324 97.7349 75.768 97.8613C77.2076 97.9812 78.353 98.6351 79.2043 99.8231L77.0886 101.255C76.5554 100.607 75.8845 100.264 75.076 100.226C74.274 100.184 73.4492 100.45 72.6016 101.023C71.7605 101.593 71.2061 102.251 70.9383 102.998C70.677 103.741 70.7565 104.423 71.1769 105.044C71.5097 105.536 71.9808 105.807 72.59 105.856C73.1948 105.9 74.0268 105.728 75.0858 105.342L76.8851 104.676C78.5491 104.04 79.9061 103.815 80.9562 104C82.0083 104.175 82.8825 104.777 83.5788 105.805C84.4634 107.112 84.681 108.479 84.2316 109.906C83.7779 111.326 82.7196 112.599 81.0568 113.725C79.4976 114.78 77.981 115.264 76.5069 115.177C75.0349 115.079 73.8396 114.421 72.921 113.203Z" fill="#D3D3D3"/>
<path d="M97.2615 102.417L93.4187 99.4992L88.0811 103.112L89.3618 107.764L87.1006 109.294L82.6783 91.8681L85.0269 90.2785L99.5615 100.86L97.2615 102.417ZM85.3805 93.4353L87.4519 100.991L91.6832 98.1268L85.4388 93.3959L85.3805 93.4353Z" fill="#D3D3D3"/>
<path d="M106.083 96.4462L103.705 98.0555L89.2291 87.4343L91.5873 85.8381L103.224 94.8151L103.283 94.7757L99.2832 80.6293L101.603 79.0594L106.083 96.4462Z" fill="#D3D3D3"/>
<path d="M120.249 84.1129L121.523 85.9956L112.634 92.0124L103.155 78.0084L112.045 71.9916L113.313 73.8646L106.597 78.4101L109.369 82.5055L115.726 78.2031L116.947 80.0082L110.591 84.3106L113.533 88.6583L120.249 84.1129Z" fill="#D3D3D3"/>
</svg>
